<svg width="924" height="204" viewBox="0 0 924 204" fill="none" xmlns="http://www.w3.org/2000/svg">
<path d="M122.338 5.84619H5.88184V44.3077H122.338V5.84619Z" stroke="white" stroke-width="10" stroke-miterlimit="10" stroke-linecap="square" stroke-linejoin="bevel"/>
<path d="M44.7004 5.84619H5.88184V198.154H44.7004V5.84619Z" stroke="white" stroke-width="10" stroke-miterlimit="10" stroke-linecap="square" stroke-linejoin="bevel"/>
<path d="M122.338 82.7693H83.519V121.231H122.338V82.7693Z" fill="white"/>
<path d="M122.338 159.692H5.88184V198.154H122.338V159.692Z" stroke="white" stroke-width="10" stroke-miterlimit="10" stroke-linecap="square" stroke-linejoin="bevel"/>
<path d="M219.384 5.84619H180.565V198.154H219.384V5.84619Z" stroke="white" stroke-width="10" stroke-miterlimit="10" stroke-linecap="square" stroke-linejoin="bevel"/>
<path d="M297.021 159.692H180.565V198.154H297.021V159.692Z" stroke="white" stroke-width="10" stroke-miterlimit="10" stroke-linecap="square" stroke-linejoin="bevel"/>
<path d="M374.658 5.84619H335.84V198.154H374.658V5.84619Z" stroke="white" stroke-width="10" stroke-miterlimit="10" stroke-linecap="square" stroke-linejoin="bevel"/>
<path d="M452.295 159.692H335.84V198.154H452.295V159.692Z" stroke="white" stroke-width="10" stroke-miterlimit="10" stroke-linecap="square" stroke-linejoin="bevel"/>
<path d="M568.751 5.84619H529.933V198.154H568.751V5.84619Z" stroke="white" stroke-width="10" stroke-miterlimit="10" stroke-linecap="square" stroke-linejoin="bevel"/>
<path d="M685.207 5.84619H646.388V198.154H685.207V5.84619Z" stroke="white" stroke-width="10" stroke-miterlimit="10" stroke-linecap="square" stroke-linejoin="bevel"/>
<path d="M762.844 5.84619H724.025V198.154H762.844V5.84619Z" stroke="white" stroke-width="10" stroke-miterlimit="10" stroke-linecap="square" stroke-linejoin="bevel"/>
<path d="M607.57 159.692H491.114V198.154H607.57V159.692Z" stroke="white" stroke-width="10" stroke-miterlimit="10" stroke-linecap="square" stroke-linejoin="bevel"/>
<path d="M607.57 5.84619H491.114V44.3077H607.57V5.84619Z" stroke="white" stroke-width="10" stroke-miterlimit="10" stroke-linecap="square" stroke-linejoin="bevel"/>
<path d="M879.3 5.84619H840.481V198.154H879.3V5.84619Z" stroke="white" stroke-width="10" stroke-miterlimit="10" stroke-linecap="square" stroke-linejoin="bevel"/>
<path d="M918.118 5.84619H801.662V44.3077H918.118V5.84619Z" stroke="white" stroke-width="10" stroke-miterlimit="10" stroke-linecap="square" stroke-linejoin="bevel"/>
<path d="M762.844 159.692H646.388V198.154H762.844V159.692Z" stroke="white" stroke-width="10" stroke-miterlimit="10" stroke-linecap="square" stroke-linejoin="bevel"/>
<path d="M762.844 5.84619H646.388V44.3077H762.844V5.84619Z" stroke="white" stroke-width="10" stroke-miterlimit="10" stroke-linecap="square" stroke-linejoin="bevel"/>
</svg>
